<svg xmlns="http://www.w3.org/2000/svg" xmlns:xlink="http://www.w3.org/1999/xlink" width="500" zoomAndPan="magnify" viewBox="0 0 375 374.999991" height="500" preserveAspectRatio="xMidYMid meet" version="1.0"><defs><g/><clipPath id="90ba16cf14"><path d="M 108 61 L 313.859375 61 L 313.859375 196 L 108 196 Z M 108 61 " clip-rule="nonzero"/></clipPath><clipPath id="7acc7c2534"><path d="M 101 119 L 311 119 L 311 272.28125 L 101 272.28125 Z M 101 119 " clip-rule="nonzero"/></clipPath></defs><rect x="-37.5" width="450" fill="#ffffff" y="-37.499999" height="449.999989" fill-opacity="1"/><rect x="-37.5" width="450" fill="#ffffff" y="-37.499999" height="449.999989" fill-opacity="1"/><path fill="#101828" d="M 193.167969 66.359375 C 198.519531 66.351562 203.839844 66.746094 209.132812 67.542969 C 214.421875 68.34375 219.625 69.535156 224.734375 71.121094 C 229.847656 72.707031 234.808594 74.667969 239.625 77.007812 C 244.4375 79.34375 249.046875 82.03125 253.457031 85.066406 L 271.855469 69.769531 C 270.484375 68.625 269.085938 67.511719 267.664062 66.429688 C 266.242188 65.347656 264.796875 64.296875 263.328125 63.28125 C 261.863281 62.261719 260.371094 61.277344 258.859375 60.328125 C 257.347656 59.375 255.8125 58.457031 254.261719 57.574219 C 252.707031 56.691406 251.136719 55.84375 249.542969 55.03125 C 247.953125 54.214844 246.34375 53.4375 244.71875 52.695312 C 243.09375 51.957031 241.453125 51.25 239.796875 50.582031 C 238.136719 49.914062 236.46875 49.28125 234.78125 48.6875 C 233.097656 48.09375 231.398438 47.535156 229.691406 47.019531 C 227.980469 46.5 226.261719 46.019531 224.527344 45.578125 C 222.796875 45.132812 221.058594 44.730469 219.308594 44.367188 C 217.558594 44 215.800781 43.675781 214.039062 43.390625 C 212.273438 43.101562 210.507812 42.855469 208.730469 42.648438 C 206.957031 42.441406 205.179688 42.273438 203.394531 42.144531 C 201.613281 42.015625 199.828125 41.925781 198.042969 41.875 C 196.257812 41.828125 194.472656 41.816406 192.683594 41.847656 C 190.898438 41.878906 189.113281 41.949219 187.328125 42.058594 C 185.546875 42.167969 183.765625 42.316406 181.988281 42.507812 C 180.214844 42.695312 178.441406 42.921875 176.675781 43.191406 C 174.910156 43.460938 173.148438 43.765625 171.394531 44.113281 C 169.644531 44.457031 167.898438 44.84375 166.164062 45.265625 C 164.425781 45.691406 162.703125 46.152344 160.984375 46.652344 C 159.269531 47.15625 157.566406 47.691406 155.875 48.269531 C 154.183594 48.847656 152.507812 49.460938 150.84375 50.109375 C 149.179688 50.761719 147.53125 51.449219 145.898438 52.175781 C 144.265625 52.898438 142.648438 53.660156 141.046875 54.457031 C 139.449219 55.25 137.867188 56.082031 136.304688 56.949219 C 134.742188 57.816406 133.199219 58.71875 131.679688 59.652344 C 130.15625 60.589844 128.65625 61.558594 127.175781 62.558594 C 125.695312 63.5625 124.242188 64.597656 122.808594 65.664062 C 121.375 66.730469 119.964844 67.828125 118.582031 68.957031 C 117.195312 70.089844 115.839844 71.25 114.503906 72.4375 C 113.171875 73.628906 111.867188 74.847656 110.589844 76.097656 C 109.3125 77.34375 108.0625 78.621094 106.839844 79.925781 C 105.617188 81.226562 104.425781 82.558594 103.261719 83.914062 C 102.101562 85.273438 100.96875 86.65625 99.867188 88.0625 C 98.765625 89.46875 97.699219 90.902344 96.660156 92.355469 C 95.625 93.8125 94.621094 95.289062 93.648438 96.789062 C 92.675781 98.289062 91.738281 99.808594 90.835938 101.347656 C 89.929688 102.890625 89.0625 104.453125 88.226562 106.03125 C 87.394531 107.609375 86.59375 109.210938 85.832031 110.824219 C 85.070312 112.441406 84.34375 114.070312 83.652344 115.71875 C 82.960938 117.367188 82.308594 119.03125 81.691406 120.707031 C 81.074219 122.382812 80.496094 124.074219 79.953125 125.777344 C 79.414062 127.480469 78.910156 129.195312 78.445312 130.917969 C 77.980469 132.644531 77.554688 134.378906 77.164062 136.125 C 76.777344 137.867188 76.429688 139.621094 76.117188 141.378906 C 75.808594 143.140625 75.539062 144.90625 75.308594 146.675781 C 75.074219 148.449219 74.882812 150.222656 74.730469 152.003906 C 74.578125 153.785156 74.46875 155.566406 74.394531 157.351562 C 74.320312 159.136719 74.289062 160.925781 74.292969 162.710938 C 74.300781 164.496094 74.347656 166.28125 74.433594 168.066406 C 74.519531 169.851562 74.644531 171.632812 74.8125 173.414062 C 74.976562 175.191406 75.179688 176.96875 75.425781 178.738281 C 75.671875 180.507812 75.953125 182.269531 76.277344 184.027344 C 76.601562 185.785156 76.960938 187.535156 77.363281 189.277344 C 77.761719 191.015625 78.203125 192.75 78.679688 194.46875 C 79.15625 196.191406 79.675781 197.902344 80.226562 199.601562 C 80.78125 201.300781 81.375 202.984375 82.003906 204.65625 C 82.632812 206.332031 83.296875 207.988281 84 209.628906 C 84.703125 211.273438 85.441406 212.898438 86.214844 214.507812 C 86.992188 216.121094 87.800781 217.710938 88.648438 219.285156 C 89.496094 220.859375 90.375 222.414062 91.289062 223.949219 C 92.207031 225.480469 93.152344 226.996094 94.136719 228.488281 L 102.289062 228.488281 C 101.0625 226.480469 99.90625 224.433594 98.816406 222.351562 C 97.726562 220.265625 96.703125 218.148438 95.753906 215.996094 C 94.804688 213.84375 93.925781 211.660156 93.121094 209.453125 C 92.3125 207.242188 91.582031 205.007812 90.925781 202.746094 C 90.265625 200.488281 89.683594 198.210938 89.175781 195.914062 C 88.671875 193.617188 88.238281 191.304688 87.886719 188.980469 C 87.53125 186.652344 87.253906 184.320312 87.054688 181.972656 C 86.855469 179.628906 86.734375 177.28125 86.691406 174.929688 C 86.648438 172.578125 86.679688 170.226562 86.792969 167.878906 C 86.90625 165.527344 87.09375 163.183594 87.359375 160.847656 C 87.628906 158.507812 87.972656 156.183594 88.394531 153.867188 C 88.8125 151.554688 89.3125 149.253906 89.882812 146.972656 C 90.457031 144.691406 91.105469 142.433594 91.828125 140.195312 C 92.550781 137.953125 93.347656 135.742188 94.214844 133.554688 C 95.085938 131.371094 96.027344 129.214844 97.039062 127.089844 C 98.050781 124.96875 99.132812 122.878906 100.28125 120.828125 C 101.433594 118.777344 102.648438 116.765625 103.933594 114.792969 C 105.214844 112.820312 106.5625 110.894531 107.972656 109.011719 C 109.386719 107.128906 110.859375 105.296875 112.390625 103.511719 C 113.921875 101.726562 115.511719 99.992188 117.160156 98.3125 C 118.808594 96.632812 120.507812 95.011719 122.261719 93.445312 C 124.015625 91.875 125.820312 90.371094 127.675781 88.921875 C 129.53125 87.472656 131.429688 86.089844 133.378906 84.769531 C 135.324219 83.445312 137.3125 82.191406 139.339844 81 C 141.371094 79.808594 143.4375 78.6875 145.539062 77.636719 C 147.644531 76.582031 149.78125 75.601562 151.949219 74.6875 C 154.117188 73.777344 156.3125 72.9375 158.539062 72.171875 C 160.761719 71.40625 163.007812 70.710938 165.28125 70.09375 C 167.550781 69.476562 169.835938 68.9375 172.144531 68.46875 C 174.449219 68.003906 176.769531 67.613281 179.101562 67.300781 C 181.429688 66.988281 183.769531 66.753906 186.117188 66.597656 C 188.464844 66.4375 190.816406 66.359375 193.167969 66.359375 Z M 193.167969 66.359375 " fill-opacity="1" fill-rule="nonzero"/><g clip-path="url(#90ba16cf14)"><path fill="#1677ff" d="M 108.925781 123.574219 L 174.882812 123.574219 L 197.757812 145.375 L 297.234375 62.394531 L 313.707031 61.332031 L 197.179688 192.695312 C 196.871094 193.046875 196.527344 193.363281 196.152344 193.648438 C 195.78125 193.933594 195.382812 194.175781 194.960938 194.378906 C 194.539062 194.585938 194.101562 194.746094 193.648438 194.863281 C 193.195312 194.984375 192.734375 195.054688 192.265625 195.082031 C 191.796875 195.109375 191.332031 195.09375 190.867188 195.027344 C 190.402344 194.960938 189.949219 194.851562 189.507812 194.699219 C 189.066406 194.542969 188.640625 194.347656 188.238281 194.109375 C 187.835938 193.871094 187.457031 193.597656 187.109375 193.285156 Z M 108.925781 123.574219 " fill-opacity="1" fill-rule="nonzero"/></g><g clip-path="url(#7acc7c2534)"><path fill="#101828" d="M 302.386719 119.890625 L 282.457031 119.890625 C 281.648438 119.894531 280.863281 120.027344 280.097656 120.289062 C 279.332031 120.546875 278.628906 120.921875 277.984375 121.410156 C 277.34375 121.902344 276.792969 122.480469 276.339844 123.148438 C 275.882812 123.816406 275.546875 124.539062 275.328125 125.316406 L 267.855469 151.765625 L 247.902344 151.765625 L 199.664062 206.675781 C 199.273438 207.121094 198.839844 207.523438 198.371094 207.882812 C 197.898438 208.242188 197.398438 208.554688 196.867188 208.816406 C 196.335938 209.078125 195.78125 209.28125 195.210938 209.433594 C 194.636719 209.585938 194.054688 209.683594 193.464844 209.71875 C 192.871094 209.757812 192.28125 209.734375 191.695312 209.65625 C 191.109375 209.578125 190.535156 209.441406 189.972656 209.25 C 189.414062 209.054688 188.878906 208.808594 188.367188 208.511719 C 187.855469 208.214844 187.375 207.867188 186.933594 207.476562 L 124.089844 151.765625 L 105.609375 151.765625 C 105.3125 151.765625 105.023438 151.800781 104.738281 151.871094 C 104.453125 151.9375 104.179688 152.042969 103.917969 152.175781 C 103.65625 152.3125 103.414062 152.476562 103.191406 152.671875 C 102.96875 152.863281 102.773438 153.078125 102.605469 153.320312 C 102.433594 153.558594 102.296875 153.816406 102.1875 154.089844 C 102.078125 154.363281 102.003906 154.648438 101.964844 154.9375 C 101.921875 155.230469 101.917969 155.523438 101.945312 155.816406 C 101.976562 156.109375 102.039062 156.394531 102.136719 156.671875 L 126.574219 226.371094 C 126.699219 226.734375 126.878906 227.074219 127.113281 227.382812 C 127.347656 227.691406 127.621094 227.957031 127.9375 228.179688 C 128.253906 228.398438 128.597656 228.566406 128.96875 228.679688 C 129.339844 228.792969 129.71875 228.847656 130.105469 228.839844 L 238.855469 228.839844 C 239.328125 228.839844 239.800781 228.886719 240.269531 228.980469 C 240.734375 229.074219 241.1875 229.210938 241.628906 229.394531 C 242.066406 229.574219 242.484375 229.796875 242.878906 230.0625 C 243.277344 230.328125 243.640625 230.628906 243.980469 230.964844 C 244.316406 231.300781 244.617188 231.667969 244.878906 232.0625 C 245.144531 232.457031 245.367188 232.875 245.550781 233.316406 C 245.730469 233.753906 245.871094 234.207031 245.960938 234.675781 C 246.054688 235.140625 246.101562 235.613281 246.101562 236.089844 C 246.101562 236.566406 246.054688 237.035156 245.960938 237.503906 C 245.871094 237.96875 245.730469 238.421875 245.550781 238.863281 C 245.367188 239.300781 245.144531 239.71875 244.878906 240.117188 C 244.617188 240.511719 244.316406 240.878906 243.980469 241.214844 C 243.640625 241.550781 243.277344 241.851562 242.878906 242.113281 C 242.484375 242.378906 242.066406 242.601562 241.628906 242.785156 C 241.1875 242.96875 240.734375 243.105469 240.269531 243.195312 C 239.800781 243.289062 239.328125 243.335938 238.855469 243.335938 L 141.574219 243.335938 C 141.054688 243.316406 140.539062 243.347656 140.027344 243.433594 C 139.515625 243.515625 139.015625 243.648438 138.53125 243.835938 C 138.046875 244.019531 137.582031 244.25 137.144531 244.527344 C 136.707031 244.808594 136.296875 245.125 135.925781 245.484375 C 135.550781 245.847656 135.214844 246.238281 134.921875 246.667969 C 134.625 247.09375 134.375 247.546875 134.171875 248.027344 C 133.96875 248.503906 133.816406 248.996094 133.710938 249.507812 C 133.609375 250.015625 133.554688 250.53125 133.554688 251.050781 C 133.554688 251.566406 133.609375 252.082031 133.710938 252.589844 C 133.816406 253.101562 133.96875 253.59375 134.171875 254.070312 C 134.375 254.550781 134.625 255.003906 134.921875 255.429688 C 135.214844 255.859375 135.550781 256.25 135.925781 256.613281 C 136.296875 256.972656 136.707031 257.292969 137.144531 257.570312 C 137.582031 257.847656 138.046875 258.078125 138.53125 258.261719 C 139.015625 258.449219 139.515625 258.582031 140.027344 258.664062 C 140.539062 258.75 141.054688 258.78125 141.574219 258.761719 L 152.964844 258.761719 C 152.890625 259.292969 152.851562 259.824219 152.847656 260.363281 C 152.847656 261.125 152.921875 261.882812 153.070312 262.632812 C 153.21875 263.382812 153.4375 264.109375 153.730469 264.816406 C 154.023438 265.523438 154.382812 266.195312 154.804688 266.828125 C 155.230469 267.464844 155.710938 268.054688 156.253906 268.59375 C 156.792969 269.136719 157.378906 269.617188 158.015625 270.042969 C 158.652344 270.46875 159.320312 270.828125 160.027344 271.117188 C 160.734375 271.410156 161.460938 271.632812 162.210938 271.78125 C 162.960938 271.929688 163.71875 272.003906 164.484375 272.003906 C 165.246094 272.003906 166.003906 271.929688 166.753906 271.78125 C 167.503906 271.632812 168.230469 271.410156 168.9375 271.117188 C 169.644531 270.828125 170.316406 270.46875 170.949219 270.042969 C 171.585938 269.617188 172.175781 269.136719 172.714844 268.59375 C 173.253906 268.054688 173.738281 267.464844 174.160156 266.828125 C 174.585938 266.195312 174.945312 265.523438 175.234375 264.816406 C 175.527344 264.109375 175.75 263.382812 175.898438 262.632812 C 176.046875 261.882812 176.121094 261.125 176.121094 260.363281 C 176.117188 259.824219 176.078125 259.292969 176 258.761719 L 212.546875 258.761719 C 212.472656 259.292969 212.433594 259.824219 212.429688 260.363281 C 212.429688 261.125 212.503906 261.882812 212.652344 262.632812 C 212.800781 263.382812 213.023438 264.109375 213.3125 264.8125 C 213.605469 265.519531 213.964844 266.191406 214.390625 266.824219 C 214.8125 267.460938 215.296875 268.050781 215.835938 268.589844 C 216.375 269.128906 216.964844 269.613281 217.601562 270.035156 C 218.234375 270.460938 218.90625 270.820312 219.613281 271.113281 C 220.316406 271.402344 221.046875 271.625 221.792969 271.773438 C 222.542969 271.921875 223.300781 271.996094 224.066406 271.996094 C 224.828125 271.996094 225.585938 271.921875 226.335938 271.773438 C 227.082031 271.625 227.8125 271.402344 228.515625 271.113281 C 229.222656 270.820312 229.894531 270.460938 230.527344 270.035156 C 231.164062 269.613281 231.753906 269.128906 232.292969 268.589844 C 232.832031 268.050781 233.316406 267.460938 233.738281 266.824219 C 234.164062 266.191406 234.523438 265.519531 234.816406 264.8125 C 235.105469 264.109375 235.328125 263.382812 235.476562 262.632812 C 235.625 261.882812 235.699219 261.125 235.699219 260.363281 C 235.699219 259.824219 235.65625 259.292969 235.570312 258.761719 L 244.089844 258.761719 C 244.734375 258.761719 245.378906 258.710938 246.015625 258.605469 C 246.652344 258.503906 247.277344 258.347656 247.890625 258.144531 C 248.5 257.9375 249.09375 257.683594 249.664062 257.382812 C 250.234375 257.082031 250.777344 256.738281 251.292969 256.347656 C 251.808594 255.960938 252.289062 255.53125 252.734375 255.0625 C 253.179688 254.597656 253.585938 254.097656 253.953125 253.5625 C 254.316406 253.03125 254.636719 252.472656 254.910156 251.886719 C 255.183594 251.300781 255.410156 250.699219 255.585938 250.078125 L 288.070312 134.773438 L 302.660156 134.773438 C 303.15625 134.773438 303.652344 134.726562 304.140625 134.625 C 304.628906 134.527344 305.101562 134.382812 305.5625 134.1875 C 306.019531 133.992188 306.457031 133.753906 306.867188 133.472656 C 307.277344 133.191406 307.660156 132.871094 308.007812 132.515625 C 308.351562 132.15625 308.660156 131.769531 308.929688 131.347656 C 309.199219 130.929688 309.425781 130.488281 309.605469 130.023438 C 309.785156 129.558594 309.917969 129.078125 310.003906 128.589844 C 310.085938 128.097656 310.121094 127.601562 310.105469 127.105469 C 310.078125 126.617188 310.003906 126.136719 309.882812 125.664062 C 309.765625 125.195312 309.601562 124.738281 309.394531 124.296875 C 309.1875 123.855469 308.941406 123.4375 308.652344 123.042969 C 308.367188 122.648438 308.046875 122.285156 307.691406 121.953125 C 307.332031 121.621094 306.949219 121.324219 306.539062 121.066406 C 306.125 120.808594 305.691406 120.589844 305.238281 120.414062 C 304.785156 120.234375 304.316406 120.101562 303.835938 120.015625 C 303.359375 119.929688 302.875 119.886719 302.386719 119.890625 Z M 302.386719 119.890625 " fill-opacity="1" fill-rule="nonzero"/></g><g fill="#101828" fill-opacity="1"><g transform="translate(194.96094, 331.758319)"><g><path d="M 23.359375 -4.0625 C 23.359375 -3.925781 23.363281 -3.773438 23.375 -3.609375 C 23.394531 -3.441406 23.4375 -3.285156 23.5 -3.140625 C 23.5625 -2.992188 23.648438 -2.875 23.765625 -2.78125 C 23.890625 -2.6875 24.070312 -2.640625 24.3125 -2.640625 C 24.601562 -2.640625 24.863281 -2.742188 25.09375 -2.953125 C 25.332031 -3.160156 25.554688 -3.375 25.765625 -3.59375 L 26.328125 -3.109375 C 26.085938 -2.785156 25.789062 -2.421875 25.4375 -2.015625 C 25.09375 -1.617188 24.671875 -1.238281 24.171875 -0.875 C 23.671875 -0.519531 23.097656 -0.222656 22.453125 0.015625 C 21.816406 0.253906 21.097656 0.375 20.296875 0.375 C 19.609375 0.375 19.007812 0.285156 18.5 0.109375 C 18 -0.0664062 17.570312 -0.304688 17.21875 -0.609375 C 16.863281 -0.921875 16.597656 -1.28125 16.421875 -1.6875 C 16.253906 -2.101562 16.171875 -2.546875 16.171875 -3.015625 L 16.171875 -4.0625 C 15.390625 -3.226562 14.570312 -2.488281 13.71875 -1.84375 C 13.34375 -1.5625 12.945312 -1.285156 12.53125 -1.015625 C 12.113281 -0.753906 11.675781 -0.519531 11.21875 -0.3125 C 10.769531 -0.101562 10.300781 0.0625 9.8125 0.1875 C 9.332031 0.3125 8.851562 0.375 8.375 0.375 C 7.4375 0.375 6.632812 0.207031 5.96875 -0.125 C 5.3125 -0.457031 4.78125 -0.894531 4.375 -1.4375 C 3.96875 -1.988281 3.671875 -2.609375 3.484375 -3.296875 C 3.296875 -3.984375 3.203125 -4.671875 3.203125 -5.359375 L 3.203125 -19.828125 C 3.203125 -19.960938 3.191406 -20.113281 3.171875 -20.28125 C 3.160156 -20.445312 3.125 -20.601562 3.0625 -20.75 C 3 -20.894531 2.90625 -21.015625 2.78125 -21.109375 C 2.65625 -21.203125 2.476562 -21.25 2.25 -21.25 C 1.96875 -21.25 1.703125 -21.144531 1.453125 -20.9375 C 1.210938 -20.726562 1 -20.515625 0.8125 -20.296875 L 0.234375 -20.78125 C 0.460938 -21.101562 0.753906 -21.460938 1.109375 -21.859375 C 1.460938 -22.265625 1.882812 -22.644531 2.375 -23 C 2.875 -23.363281 3.445312 -23.664062 4.09375 -23.90625 C 4.75 -24.144531 5.472656 -24.265625 6.265625 -24.265625 C 6.953125 -24.265625 7.550781 -24.175781 8.0625 -24 C 8.582031 -23.820312 9.007812 -23.578125 9.34375 -23.265625 C 9.6875 -22.960938 9.941406 -22.601562 10.109375 -22.1875 C 10.285156 -21.78125 10.375 -21.34375 10.375 -20.875 L 10.375 -5.265625 C 10.375 -5.046875 10.410156 -4.820312 10.484375 -4.59375 C 10.554688 -4.363281 10.65625 -4.15625 10.78125 -3.96875 C 10.914062 -3.78125 11.082031 -3.628906 11.28125 -3.515625 C 11.488281 -3.398438 11.734375 -3.34375 12.015625 -3.34375 C 12.460938 -3.34375 12.910156 -3.457031 13.359375 -3.6875 C 13.816406 -3.925781 14.234375 -4.203125 14.609375 -4.515625 C 14.984375 -4.835938 15.304688 -5.15625 15.578125 -5.46875 C 15.847656 -5.78125 16.046875 -6.015625 16.171875 -6.171875 L 16.171875 -19.828125 C 16.171875 -19.960938 16.160156 -20.113281 16.140625 -20.28125 C 16.128906 -20.445312 16.09375 -20.601562 16.03125 -20.75 C 15.96875 -20.894531 15.875 -21.015625 15.75 -21.109375 C 15.625 -21.203125 15.445312 -21.25 15.21875 -21.25 C 14.9375 -21.25 14.675781 -21.144531 14.4375 -20.9375 C 14.195312 -20.726562 13.984375 -20.515625 13.796875 -20.296875 L 13.203125 -20.78125 C 13.441406 -21.101562 13.734375 -21.460938 14.078125 -21.859375 C 14.429688 -22.265625 14.859375 -22.644531 15.359375 -23 C 15.859375 -23.363281 16.429688 -23.664062 17.078125 -23.90625 C 17.722656 -24.144531 18.441406 -24.265625 19.234375 -24.265625 C 19.921875 -24.265625 20.519531 -24.175781 21.03125 -24 C 21.550781 -23.820312 21.984375 -23.578125 22.328125 -23.265625 C 22.671875 -22.960938 22.925781 -22.601562 23.09375 -22.1875 C 23.269531 -21.78125 23.359375 -21.34375 23.359375 -20.875 Z M 23.359375 -4.0625 "/></g></g></g><g fill="#101828" fill-opacity="1"><g transform="translate(221.537816, 331.758319)"><g><path d="M 13.34375 -15.515625 L 15.9375 -19.375 C 16.15625 -19.71875 16.335938 -20.066406 16.484375 -20.421875 C 16.640625 -20.773438 16.765625 -21.117188 16.859375 -21.453125 C 16.960938 -21.785156 17.050781 -22.09375 17.125 -22.375 C 17.195312 -22.664062 17.265625 -22.914062 17.328125 -23.125 C 17.453125 -23.53125 17.660156 -23.820312 17.953125 -24 C 18.242188 -24.175781 18.703125 -24.265625 19.328125 -24.265625 C 19.691406 -24.265625 20.007812 -24.203125 20.28125 -24.078125 C 20.550781 -23.953125 20.6875 -23.75 20.6875 -23.46875 C 20.6875 -23.019531 20.53125 -22.460938 20.21875 -21.796875 C 19.90625 -21.140625 19.484375 -20.4375 18.953125 -19.6875 L 14.609375 -13.4375 L 20.6875 -3.296875 C 20.84375 -3.015625 20.984375 -2.785156 21.109375 -2.609375 C 21.242188 -2.441406 21.375 -2.3125 21.5 -2.21875 C 21.625 -2.125 21.75 -2.054688 21.875 -2.015625 C 22 -1.984375 22.140625 -1.96875 22.296875 -1.96875 C 22.472656 -1.96875 22.644531 -2.007812 22.8125 -2.09375 C 22.988281 -2.175781 23.1875 -2.304688 23.40625 -2.484375 L 23.890625 -1.921875 C 23.535156 -1.617188 23.160156 -1.320312 22.765625 -1.03125 C 22.378906 -0.75 21.945312 -0.5 21.46875 -0.28125 C 21 -0.0625 20.476562 0.113281 19.90625 0.25 C 19.332031 0.394531 18.695312 0.46875 18 0.46875 C 17.207031 0.46875 16.519531 0.332031 15.9375 0.0625 C 15.363281 -0.207031 14.863281 -0.546875 14.4375 -0.953125 C 14.007812 -1.359375 13.640625 -1.796875 13.328125 -2.265625 C 13.023438 -2.734375 12.765625 -3.160156 12.546875 -3.546875 L 9.140625 -9.234375 L 5.984375 -4.515625 C 5.765625 -4.171875 5.582031 -3.820312 5.4375 -3.46875 C 5.289062 -3.125 5.164062 -2.78125 5.0625 -2.4375 C 4.957031 -2.101562 4.867188 -1.789062 4.796875 -1.5 C 4.734375 -1.21875 4.671875 -0.972656 4.609375 -0.765625 C 4.484375 -0.359375 4.269531 -0.0664062 3.96875 0.109375 C 3.675781 0.285156 3.21875 0.375 2.59375 0.375 C 2.238281 0.375 1.921875 0.3125 1.640625 0.1875 C 1.367188 0.0625 1.234375 -0.140625 1.234375 -0.421875 C 1.234375 -0.867188 1.375 -1.394531 1.65625 -2 C 1.9375 -2.601562 2.375 -3.335938 2.96875 -4.203125 L 7.953125 -11.296875 L 2.34375 -20.734375 C 2.15625 -21.046875 1.976562 -21.304688 1.8125 -21.515625 C 1.644531 -21.722656 1.40625 -21.828125 1.09375 -21.828125 C 0.800781 -21.828125 0.4375 -21.648438 0 -21.296875 L -0.46875 -21.875 C -0.113281 -22.175781 0.269531 -22.46875 0.6875 -22.75 C 1.113281 -23.039062 1.570312 -23.296875 2.0625 -23.515625 C 2.5625 -23.734375 3.097656 -23.910156 3.671875 -24.046875 C 4.242188 -24.191406 4.859375 -24.265625 5.515625 -24.265625 C 6.242188 -24.265625 6.863281 -24.148438 7.375 -23.921875 C 7.882812 -23.703125 8.3125 -23.421875 8.65625 -23.078125 C 9.007812 -22.734375 9.3125 -22.347656 9.5625 -21.921875 C 9.8125 -21.503906 10.050781 -21.109375 10.28125 -20.734375 Z M 13.34375 -15.515625 "/></g></g></g><g fill="#101828" fill-opacity="1"><g transform="translate(244.561759, 331.758319)"><g><path d="M 8.953125 -10.734375 C 8.953125 -10.234375 9.023438 -9.691406 9.171875 -9.109375 C 9.316406 -8.523438 9.53125 -7.9375 9.8125 -7.34375 C 10.09375 -6.75 10.441406 -6.179688 10.859375 -5.640625 C 11.273438 -5.109375 11.75 -4.628906 12.28125 -4.203125 C 12.820312 -3.785156 13.414062 -3.453125 14.0625 -3.203125 C 14.71875 -2.953125 15.4375 -2.828125 16.21875 -2.828125 C 16.769531 -2.828125 17.273438 -2.890625 17.734375 -3.015625 C 18.203125 -3.140625 18.640625 -3.3125 19.046875 -3.53125 C 19.453125 -3.75 19.84375 -4 20.21875 -4.28125 C 20.59375 -4.570312 20.96875 -4.882812 21.34375 -5.21875 L 21.921875 -4.65625 C 21.566406 -4.164062 21.109375 -3.632812 20.546875 -3.0625 C 19.984375 -2.488281 19.304688 -1.945312 18.515625 -1.4375 C 17.722656 -0.925781 16.796875 -0.503906 15.734375 -0.171875 C 14.671875 0.160156 13.460938 0.328125 12.109375 0.328125 C 10.753906 0.328125 9.429688 0.0820312 8.140625 -0.40625 C 6.859375 -0.894531 5.71875 -1.628906 4.71875 -2.609375 C 3.71875 -3.597656 2.914062 -4.820312 2.3125 -6.28125 C 1.71875 -7.75 1.421875 -9.46875 1.421875 -11.4375 C 1.421875 -12.851562 1.597656 -14.148438 1.953125 -15.328125 C 2.316406 -16.515625 2.804688 -17.582031 3.421875 -18.53125 C 4.035156 -19.488281 4.75 -20.320312 5.5625 -21.03125 C 6.382812 -21.75 7.25 -22.347656 8.15625 -22.828125 C 9.0625 -23.304688 9.984375 -23.664062 10.921875 -23.90625 C 11.867188 -24.144531 12.78125 -24.265625 13.65625 -24.265625 C 14.800781 -24.265625 15.800781 -24.140625 16.65625 -23.890625 C 17.519531 -23.640625 18.234375 -23.300781 18.796875 -22.875 C 19.367188 -22.457031 19.796875 -21.972656 20.078125 -21.421875 C 20.359375 -20.867188 20.5 -20.289062 20.5 -19.6875 C 20.5 -18.945312 20.285156 -18.285156 19.859375 -17.703125 C 19.441406 -17.117188 18.882812 -16.609375 18.1875 -16.171875 Z M 13.65625 -15.46875 C 13.851562 -15.59375 14.019531 -15.710938 14.15625 -15.828125 C 14.289062 -15.953125 14.394531 -16.09375 14.46875 -16.25 C 14.550781 -16.414062 14.609375 -16.617188 14.640625 -16.859375 C 14.679688 -17.109375 14.703125 -17.410156 14.703125 -17.765625 C 14.703125 -18.148438 14.660156 -18.582031 14.578125 -19.0625 C 14.492188 -19.539062 14.347656 -19.988281 14.140625 -20.40625 C 13.941406 -20.820312 13.6875 -21.171875 13.375 -21.453125 C 13.0625 -21.734375 12.6875 -21.875 12.25 -21.875 C 11.6875 -21.875 11.207031 -21.707031 10.8125 -21.375 C 10.414062 -21.039062 10.085938 -20.609375 9.828125 -20.078125 C 9.566406 -19.546875 9.363281 -18.941406 9.21875 -18.265625 C 9.070312 -17.585938 8.957031 -16.90625 8.875 -16.21875 C 8.800781 -15.53125 8.753906 -14.867188 8.734375 -14.234375 C 8.722656 -13.609375 8.71875 -13.078125 8.71875 -12.640625 Z M 13.65625 -15.46875 "/></g></g></g><g fill="#1677ff" fill-opacity="1"><g transform="translate(106.129143, 326.508319)"><g><path d="M 16.1875 -36.09375 L 16.1875 -29.96875 L 10.921875 -29.96875 L 10.921875 4.40625 L 16.1875 4.40625 L 16.1875 10.53125 L 3.40625 10.53125 L 3.40625 -36.09375 Z M 16.1875 -36.09375 "/></g></g></g><g fill="#1677ff" fill-opacity="1"><g transform="translate(123.267024, 326.508319)"><g><path d="M 11.203125 -37.921875 L 11.203125 -30.78125 L 3.25 -30.78125 L 3.25 -37.921875 Z M 11.25 -26.140625 L 11.25 0 L 3.296875 0 L 3.296875 -26.140625 Z M 11.25 -26.140625 "/></g></g></g><g fill="#1677ff" fill-opacity="1"><g transform="translate(137.771987, 326.508319)"><g><path d="M 12.109375 -33.84375 L 12.109375 -6.421875 L 26.8125 -6.421875 L 26.8125 0 L 3.96875 0 L 3.96875 -33.84375 Z M 12.109375 -33.84375 "/></g></g></g><g fill="#1677ff" fill-opacity="1"><g transform="translate(165.010686, 326.508319)"><g><path d="M 6.21875 4.40625 L 6.21875 -29.96875 L 0.953125 -29.96875 L 0.953125 -36.09375 L 13.734375 -36.09375 L 13.734375 10.53125 L 0.953125 10.53125 L 0.953125 4.40625 Z M 6.21875 4.40625 "/></g></g></g></svg>