<svg xmlns="http://www.w3.org/2000/svg" id="comma" version="1.1" viewBox="0 0 1000 1000">
  <path d="M785.8839,387.5413c.5782,2.2996,1.0957,4.5997,1.5511,6.8993,31.384,140.2254-54.5031,280.7505-194.6903,316.0013-10.3338,2.5986-20.6541,4.5708-30.976,5.8639l40.1058-167.7539c-39.5184-15.7179-71.1492-49.6166-82.3199-94.0404-18.4971-73.5602,26.12-148.1529,99.6796-166.6498,15.3938-3.871,30.8579-4.9845,45.82-3.5928,56.4882,5.051,106.2033,45.1063,120.8296,103.2725ZM355.786,284.2688c-14.9618-1.3916-30.4261-.2782-45.82,3.5928-73.5596,18.4969-118.1767,93.0896-99.6796,166.6498,11.1707,44.4238,42.8014,78.3225,82.32,94.0404l-40.106,167.7539c10.3219-1.2931,20.6422-3.2653,30.976-5.8639,140.1872-35.2507,226.0745-175.7758,194.6903-316.0013-.4554-2.2996-.9729-4.5997-1.5511-6.8993-14.6263-58.1662-64.3414-98.2214-120.8296-103.2725Z" fill="#101828" class="color000000 svgShape"></path>
</svg>
