<svg xmlns="http://www.w3.org/2000/svg" xmlns:xlink="http://www.w3.org/1999/xlink" width="200" zoomAndPan="magnify" viewBox="0 0 150 30.000001" height="40" preserveAspectRatio="xMidYMid meet" version="1.0"><defs><clipPath id="98ee4b886b"><path d="M 80 12.613281 L 145.964844 12.613281 L 145.964844 15 L 80 15 Z M 80 12.613281 " clip-rule="nonzero"/></clipPath><clipPath id="0174575c60"><path d="M 4 12.613281 L 70 12.613281 L 70 15 L 4 15 Z M 4 12.613281 " clip-rule="nonzero"/></clipPath><clipPath id="8fe7a80e35"><path d="M 72 12.613281 L 78 12.613281 L 78 17 L 72 17 Z M 72 12.613281 " clip-rule="nonzero"/></clipPath><clipPath id="c4501fd524"><path d="M 83 15 L 144 15 L 144 16.371094 L 83 16.371094 Z M 83 15 " clip-rule="nonzero"/></clipPath><clipPath id="b368585bd9"><path d="M 6 15 L 67 15 L 67 16.371094 L 6 16.371094 Z M 6 15 " clip-rule="nonzero"/></clipPath><clipPath id="fdac42004e"><path d="M 72 14.789062 L 78 14.789062 L 78 16.371094 L 72 16.371094 Z M 72 14.789062 " clip-rule="nonzero"/></clipPath></defs><g clip-path="url(#98ee4b886b)"><path fill="#101828" d="M 81.113281 14.375 L 145.519531 14.375 L 145.863281 12.882812 L 80.765625 12.882812 Z M 81.113281 14.375 " fill-opacity="1" fill-rule="nonzero"/></g><path fill="#101828" d="M 83.371094 15.941406 L 143.257812 15.941406 L 142.242188 16.730469 L 84.390625 16.730469 Z M 83.371094 15.941406 " fill-opacity="1" fill-rule="nonzero"/><g clip-path="url(#0174575c60)"><path fill="#101828" d="M 69.203125 12.882812 L 4.109375 12.882812 L 4.453125 14.375 L 68.859375 14.375 Z M 69.203125 12.882812 " fill-opacity="1" fill-rule="nonzero"/></g><path fill="#101828" d="M 65.582031 16.730469 L 7.726562 16.730469 L 6.714844 15.941406 L 66.597656 15.941406 Z M 65.582031 16.730469 " fill-opacity="1" fill-rule="nonzero"/><g clip-path="url(#8fe7a80e35)"><path fill="#101828" d="M 77.179688 14.808594 C 77.179688 15.097656 77.125 15.378906 77.011719 15.648438 C 76.902344 15.914062 76.742188 16.152344 76.535156 16.359375 C 76.332031 16.5625 76.09375 16.722656 75.824219 16.832031 C 75.554688 16.945312 75.277344 17 74.984375 17 C 74.695312 17 74.414062 16.945312 74.148438 16.832031 C 73.878906 16.722656 73.640625 16.5625 73.433594 16.359375 C 73.230469 16.152344 73.070312 15.914062 72.960938 15.648438 C 72.847656 15.378906 72.792969 15.097656 72.792969 14.808594 C 72.792969 14.515625 72.847656 14.238281 72.960938 13.96875 C 73.070312 13.699219 73.230469 13.460938 73.433594 13.257812 C 73.640625 13.050781 73.878906 12.894531 74.148438 12.78125 C 74.414062 12.671875 74.695312 12.613281 74.984375 12.613281 C 75.277344 12.613281 75.554688 12.671875 75.824219 12.78125 C 76.09375 12.894531 76.332031 13.050781 76.535156 13.257812 C 76.742188 13.460938 76.902344 13.699219 77.011719 13.96875 C 77.125 14.238281 77.179688 14.515625 77.179688 14.808594 Z M 77.179688 14.808594 " fill-opacity="1" fill-rule="nonzero"/></g><g clip-path="url(#c4501fd524)"><path fill="#1677ff" d="M 83.371094 15.355469 L 143.257812 15.355469 L 142.242188 16.148438 L 84.390625 16.148438 Z M 83.371094 15.355469 " fill-opacity="1" fill-rule="nonzero"/></g><g clip-path="url(#b368585bd9)"><path fill="#1677ff" d="M 65.582031 16.148438 L 7.726562 16.148438 L 6.714844 15.355469 L 66.597656 15.355469 Z M 65.582031 16.148438 " fill-opacity="1" fill-rule="nonzero"/></g><g clip-path="url(#fdac42004e)"><path fill="#1677ff" d="M 77.179688 14.222656 C 77.179688 14.515625 77.125 14.792969 77.011719 15.0625 C 76.902344 15.332031 76.742188 15.570312 76.535156 15.773438 C 76.332031 15.980469 76.09375 16.136719 75.824219 16.25 C 75.554688 16.359375 75.277344 16.417969 74.984375 16.417969 C 74.695312 16.417969 74.414062 16.359375 74.148438 16.25 C 73.878906 16.136719 73.640625 15.980469 73.433594 15.773438 C 73.230469 15.570312 73.070312 15.332031 72.960938 15.0625 C 72.847656 14.792969 72.792969 14.515625 72.792969 14.222656 C 72.792969 13.933594 72.847656 13.652344 72.960938 13.382812 C 73.070312 13.117188 73.230469 12.878906 73.433594 12.671875 C 73.640625 12.46875 73.878906 12.308594 74.148438 12.199219 C 74.414062 12.085938 74.695312 12.03125 74.984375 12.03125 C 75.277344 12.03125 75.554688 12.085938 75.824219 12.199219 C 76.09375 12.308594 76.332031 12.46875 76.535156 12.671875 C 76.742188 12.878906 76.902344 13.117188 77.011719 13.382812 C 77.125 13.652344 77.179688 13.933594 77.179688 14.222656 Z M 77.179688 14.222656 " fill-opacity="1" fill-rule="nonzero"/></g></svg>